<?xml version="1.0" encoding="UTF-8" standalone="no"?>
<svg
   version="1.0"
   width="100%"
   height="100%"
   viewBox="0 0 1025.248 969.95886"
   preserveAspectRatio="xMidYMid"
   id="svg6"
   xmlns="http://www.w3.org/2000/svg"
   xmlns:svg="http://www.w3.org/2000/svg">
  <defs
     id="defs6" />
  <g
     transform="matrix(0.1,0,0,-0.1,0,0)"
     fill="#343233"
     stroke="none"
     id="g6">
    <path
       d="m 3380,9697 c -72,-16 -152,-61 -197,-110 -69,-77 -88,-137 -138,-438 -42,-258 -69,-387 -93,-450 -17,-44 -98,-65 -510,-133 -302,-51 -340,-63 -419,-142 -24,-25 -59,-75 -76,-112 -29,-61 -32,-76 -32,-162 0,-82 4,-103 27,-152 50,-107 153,-189 276,-219 l 43,-10 -28,-33 C 2028,7496 1936,7375 1827,7209 1427,6598 1189,5893 1140,5175 1123,4915 1089,4770 1040,4745 991,4720 847,4689 553,4640 363,4608 248,4584 223,4571 35,4475 -49,4252 36,4071 c 47,-103 121,-170 224,-204 25,-8 144,-31 265,-51 286,-47 418,-74 482,-98 48,-18 53,-23 71,-71 26,-68 52,-198 101,-496 45,-274 62,-323 138,-399 92,-92 264,-137 375,-99 l 44,15 59,-92 c 289,-451 694,-875 1135,-1188 548,-388 1182,-641 1845,-737 213,-31 368,-41 605,-41 l 217,-1 11,-23 c 6,-13 31,-95 57,-182 25,-87 58,-180 72,-207 73,-134 245,-214 399,-186 148,27 253,127 302,289 11,36 37,120 58,187 l 37,123 54,20 c 29,11 111,36 181,56 70,20 148,47 173,60 63,32 132,103 166,172 l 28,57 155,77 c 393,195 736,438 1059,753 244,238 406,431 583,695 375,561 599,1163 690,1855 30,232 33,780 5,1005 -21,166 -57,367 -92,517 -14,58 -25,108 -25,112 0,9 185,72 384,131 158,47 226,85 281,160 44,61 64,108 76,182 25,155 -61,318 -206,388 -24,12 -113,41 -197,66 -225,65 -307,93 -368,126 -140,74 -178,142 -285,508 -32,107 -66,212 -76,232 -67,131 -219,216 -366,205 -93,-7 -166,-40 -238,-108 l -56,-53 -112,110 c -588,578 -1361,977 -2187,1128 -291,53 -390,61 -775,61 -290,0 -387,-4 -500,-18 -293,-38 -559,-97 -820,-181 -77,-25 -141,-44 -143,-42 -1,2 -23,122 -47,267 -24,145 -50,283 -59,307 -61,171 -257,278 -436,239 z m 126,-650 c 23,-139 52,-292 64,-342 27,-112 87,-239 134,-284 l 35,-34 93,41 c 331,145 676,241 1061,294 141,20 205,23 502,23 345,0 391,-3 646,-46 1000,-166 1892,-722 2498,-1557 29,-39 56,-70 60,-67 14,8 73,174 126,354 29,96 54,170 57,165 3,-5 16,-45 28,-89 168,-612 286,-749 776,-904 87,-27 188,-59 224,-69 l 65,-19 -75,-22 c -425,-125 -607,-210 -709,-334 l -24,-29 22,-72 c 74,-243 133,-522 163,-771 20,-172 17,-705 -5,-880 C 9152,3672 8882,3023 8442,2469 7965,1868 7321,1415 6620,1185 l -85,-28 40,-13 c 22,-7 73,-22 113,-34 41,-12 72,-23 70,-24 -1,-2 -73,-25 -158,-51 -192,-58 -262,-91 -323,-151 -62,-61 -106,-154 -159,-337 -23,-81 -45,-147 -49,-147 -3,0 -19,44 -34,98 -83,298 -136,385 -277,459 l -53,28 -340,6 c -333,7 -423,14 -659,54 -326,56 -675,168 -984,316 -504,240 -933,573 -1308,1014 -277,327 -534,773 -673,1170 -18,49 -34,91 -36,93 -8,8 -28,-89 -71,-342 -24,-144 -44,-263 -45,-266 0,-3 -20,110 -44,250 -24,140 -55,304 -69,363 -50,208 -125,323 -254,390 -124,64 -231,91 -611,153 -118,19 -216,36 -218,38 -2,2 88,18 199,35 476,76 611,117 719,218 121,113 186,321 209,672 70,1060 573,2036 1405,2722 50,41 103,84 119,95 l 29,21 -59,23 c -75,28 -237,63 -472,100 -103,17 -200,33 -217,37 -21,4 49,20 245,53 422,72 523,105 624,200 106,100 149,229 219,651 23,142 44,255 47,253 2,-3 23,-118 46,-257 z"
       id="path1" />
    <path
       d="m 3441,8618 c -21,-85 -84,-209 -135,-265 -67,-75 -146,-123 -269,-164 l -107,-36 67,-18 c 228,-62 358,-189 434,-425 15,-47 30,-78 32,-70 3,8 15,47 27,85 34,106 79,184 145,250 70,70 146,112 269,151 l 88,27 -81,24 c -222,63 -350,188 -418,405 -16,49 -31,88 -34,88 -3,0 -11,-24 -18,-52 z"
       id="path2" />
   
    <path
       d="m 8771,7190 c -5,-14 -28,-69 -50,-122 -108,-266 -276,-421 -564,-523 -43,-16 -74,-31 -70,-35 4,-4 37,-17 73,-30 241,-85 408,-223 510,-422 29,-56 65,-136 81,-177 21,-60 29,-72 35,-56 88,239 149,341 268,452 82,77 176,134 308,185 102,40 136,58 108,58 -32,0 -230,89 -299,133 -169,110 -263,236 -356,476 -31,79 -34,84 -44,61 z"
       id="path4" />
    <path
       d="m 1567,4714 c -32,-124 -90,-230 -165,-303 -75,-74 -140,-110 -279,-156 l -94,-31 83,-24 c 247,-71 378,-204 451,-457 l 23,-83 24,83 c 73,252 205,383 462,458 l 77,23 -82,24 c -251,72 -385,207 -452,452 -10,36 -21,68 -24,72 -4,4 -14,-22 -24,-58 z"
       id="path5" />
    <path
       d="m 6035,1337 c -40,-84 -130,-174 -218,-217 l -69,-34 68,-34 c 86,-43 169,-126 215,-216 l 36,-69 37,70 c 46,88 122,163 213,211 l 71,37 -61,30 c -89,43 -176,129 -218,214 -19,38 -36,70 -39,70 -3,1 -18,-27 -35,-62 z"
       id="path6" />
        <path
       d="m 5145,8580 c -392,-28 -759,-110 -1122,-253 -46,-17 -83,-35 -83,-39 0,-11 171,-46 432,-90 137,-23 247,-42 245,-44 -1,-1 -124,-23 -272,-48 -317,-54 -432,-83 -527,-133 -180,-94 -238,-236 -324,-796 -16,-97 -31,-174 -35,-170 -3,5 -19,87 -34,183 -37,240 -70,403 -100,496 -24,78 -88,194 -106,194 -27,0 -307,-237 -459,-390 -491,-492 -843,-1131 -995,-1808 -48,-216 -72,-387 -85,-622 -7,-140 -7,-149 21,-259 89,-357 199,-428 826,-531 213,-35 286,-50 247,-50 -40,0 -563,-94 -641,-115 -151,-41 -257,-101 -312,-176 l -22,-30 41,-132 c 234,-743 695,-1397 1315,-1864 502,-378 1096,-625 1714,-713 211,-31 493,-45 652,-34 124,9 141,13 211,46 153,73 212,160 290,430 23,82 45,142 49,135 3,-6 23,-70 44,-142 45,-157 99,-277 148,-327 l 36,-36 149,43 c 697,204 1370,655 1825,1225 549,686 829,1472 830,2335 0,258 -10,396 -49,625 -27,166 -94,441 -105,434 -12,-7 -67,-168 -119,-344 -26,-91 -51,-158 -54,-150 -3,8 -26,87 -52,175 -86,299 -154,442 -261,555 -73,78 -159,136 -273,185 -82,35 -272,98 -405,135 -44,12 -84,25 -89,28 -5,3 65,27 155,53 339,98 493,173 613,297 26,27 36,45 30,54 -116,191 -408,530 -611,710 -619,549 -1312,857 -2128,948 -130,14 -470,20 -610,10 z M 6513,7507 c 299,-140 521,-768 544,-1537 14,-503 -64,-970 -216,-1285 -119,-245 -244,-358 -397,-359 -264,0 -511,423 -613,1049 -37,223 -45,346 -45,625 0,541 84,953 258,1263 130,233 301,322 469,244 z m -2068,-11 c 190,-89 355,-372 456,-781 210,-857 70,-1958 -294,-2302 -70,-66 -127,-95 -202,-100 -189,-15 -372,182 -508,547 -212,568 -234,1452 -52,2055 67,220 144,370 246,480 112,120 238,156 354,101 z M 2940,3867 c 11,-12 43,-72 69,-133 246,-569 687,-1027 1256,-1305 267,-130 565,-216 860,-249 117,-13 425,-13 540,0 895,101 1677,657 2057,1460 106,223 108,227 134,239 61,27 116,4 135,-57 10,-35 8,-46 -25,-126 -254,-613 -704,-1102 -1301,-1412 -408,-212 -807,-308 -1280,-308 -467,1 -852,92 -1255,297 -462,235 -856,602 -1124,1045 -121,200 -231,448 -221,499 12,67 108,99 155,50 z"
       id="animate" />
  </g>
</svg>
