<?xml version="1.0" standalone="no"?>
<!DOCTYPE svg PUBLIC "-//W3C//DTD SVG 20010904//EN"
 "http://www.w3.org/TR/2001/REC-SVG-20010904/DTD/svg10.dtd">
<svg version="1.0" xmlns="http://www.w3.org/2000/svg"
 width="299.000000pt" height="215.000000pt" viewBox="0 0 299.000000 215.000000"
 preserveAspectRatio="xMidYMid meet">

<g transform="translate(0.000000,215.000000) scale(0.100000,-0.100000)"
fill="#343233" stroke="none">
<path d="M890 1615 c-143 -41 -238 -148 -271 -305 -7 -32 -9 -99 -7 -160 17
-355 308 -755 784 -1080 l100 -69 96 67 c441 307 702 637 778 986 6 27 11 90
11 140 0 190 -79 334 -217 397 -114 52 -230 47 -384 -15 -67 -27 -213 -121
-250 -161 -13 -14 -26 -25 -30 -25 -4 0 -34 22 -67 49 -188 150 -395 217 -543
176z"/>
</g>
</svg>
