<svg width="249" height="70" viewBox="0 0 249 70" fill="none" xmlns="http://www.w3.org/2000/svg">
<path d="M248.232 34.7679C248.232 35.8991 248.033 37.0237 247.635 38.1483C247.237 39.2729 246.639 40.3909 245.85 41.4955C245.053 42.6068 244.072 43.6981 242.891 44.7828C241.71 45.8608 240.344 46.9255 238.792 47.9703C237.234 49.015 235.504 50.0332 233.589 51.0313C231.673 52.0295 229.586 52.9944 227.335 53.9327C225.076 54.8709 222.66 55.7826 220.085 56.6543C217.511 57.5261 214.785 58.3645 211.909 59.1631C209.039 59.9616 206.032 60.7202 202.895 61.4389C199.758 62.1509 196.497 62.823 193.119 63.4552C189.749 64.0807 186.268 64.6596 182.684 65.192C179.101 65.7244 175.435 66.2101 171.687 66.6427C167.931 67.0752 164.114 67.4545 160.229 67.7806C156.343 68.1067 152.41 68.3861 148.421 68.6057C144.439 68.8253 140.43 68.9917 136.387 69.0982C132.343 69.2113 128.293 69.2645 124.235 69.2645C120.171 69.2645 116.121 69.2113 112.077 69.0982C108.034 68.9917 104.025 68.8253 100.043 68.6057C96.0612 68.3861 92.1207 68.1067 88.235 67.7806C84.3494 67.4545 80.5324 67.0752 76.7773 66.6427C73.0289 66.2101 69.363 65.7244 65.7795 65.192C62.1959 64.6596 58.7222 64.0807 55.3446 63.4552C51.967 62.823 48.7061 62.1509 45.5687 61.4389C42.4314 60.7202 39.4245 59.9616 36.5549 59.1631C33.6785 58.3645 30.9599 57.5261 28.3786 56.6543C25.8043 55.7826 23.3878 54.8709 21.1292 53.9327C18.8774 52.9944 16.7904 52.0295 14.8751 51.0313C12.9597 50.0332 11.2297 49.015 9.67138 47.9703C8.11988 46.9255 6.75373 45.8608 5.57294 44.7828C4.39216 43.6981 3.41045 42.6068 2.61411 41.4955C1.82463 40.3909 1.22737 39.2729 0.829193 38.1483C0.431021 37.0237 0.231934 35.8991 0.231934 34.7679C0.231934 33.6366 0.431021 32.512 0.829193 31.3874C1.22737 30.2628 1.82463 29.1448 2.61411 28.0335C3.41045 26.9289 4.39216 25.8309 5.57294 24.7529C6.75373 23.6682 8.11988 22.6102 9.67138 21.5654C11.2297 20.5207 12.9597 19.5025 14.8751 18.5044C16.7904 17.5062 18.8774 16.5413 21.1292 15.603C23.3878 14.6581 25.8043 13.7531 28.3786 12.8814C30.9599 12.0096 33.6785 11.1712 36.5549 10.3726C39.4245 9.5741 42.4314 8.8155 45.5687 8.09681C48.7061 7.37813 51.967 6.70604 55.3446 6.08052C58.7222 5.455 62.1959 4.87606 65.7795 4.3437C69.363 3.81135 73.0289 3.32557 76.7773 2.89303C80.5324 2.4605 84.3494 2.08119 88.235 1.75512C92.1207 1.4224 96.0612 1.14957 100.043 0.929971C104.025 0.710373 108.034 0.544013 112.077 0.430888C116.121 0.324416 120.171 0.264526 124.235 0.264526C128.293 0.264526 132.343 0.324416 136.387 0.430888C140.43 0.544013 144.439 0.710373 148.421 0.929971C152.41 1.14957 156.343 1.4224 160.229 1.75512C164.114 2.08119 167.931 2.4605 171.687 2.89303C175.435 3.32557 179.101 3.81135 182.684 4.3437C186.268 4.87606 189.749 5.455 193.119 6.08052C196.497 6.70604 199.758 7.37813 202.895 8.09681C206.032 8.8155 209.039 9.5741 211.909 10.3726C214.785 11.1712 217.511 12.0096 220.085 12.8814C222.66 13.7531 225.076 14.6581 227.335 15.603C229.586 16.5413 231.673 17.5062 233.589 18.5044C235.504 19.5025 237.234 20.5207 238.792 21.5654C240.344 22.6102 241.71 23.6682 242.891 24.7529C244.072 25.8309 245.053 26.9289 245.85 28.0335C246.639 29.1448 247.237 30.2628 247.635 31.3874C248.033 32.512 248.232 33.6366 248.232 34.7679Z" fill="#343233"/>
</svg>
