<?xml version="1.0" standalone="no"?>
<!DOCTYPE svg PUBLIC "-//W3C//DTD SVG 20010904//EN"
 "http://www.w3.org/TR/2001/REC-SVG-20010904/DTD/svg10.dtd">
<svg version="1.0" xmlns="http://www.w3.org/2000/svg"
 width="214.000000pt" height="214.000000pt" viewBox="0 0 214.000000 214.000000"
 preserveAspectRatio="xMidYMid meet">

<g transform="translate(0.000000,214.000000) scale(0.100000,-0.100000)"
fill="#343233" stroke="none">
<path d="M930 2129 c-273 -34 -538 -190 -712 -419 -62 -81 -151 -261 -178
-359 -61 -227 -46 -469 43 -690 63 -156 201 -333 347 -443 81 -62 261 -151
359 -177 357 -98 734 -6 999 244 112 106 173 187 238 320 64 131 90 222 105
366 33 298 -68 597 -276 817 -106 112 -187 173 -320 238 -199 97 -393 130
-605 103z m248 -130 c507 -56 878 -521 822 -1030 -66 -595 -662 -976 -1232
-785 -411 138 -676 553 -628 987 52 468 426 811 913 838 15 0 71 -4 125 -10z"/>
<path d="M737 1478 c-52 -70 -69 -194 -43 -298 19 -73 35 -103 70 -126 22 -14
27 -14 54 0 18 9 39 34 53 63 20 41 23 63 24 158 0 115 -16 175 -59 218 -29
28 -71 22 -99 -15z"/>
<path d="M1297 1480 c-40 -46 -52 -96 -52 -205 0 -89 3 -106 27 -156 17 -33
38 -60 53 -67 100 -46 171 194 110 368 -32 91 -91 117 -138 60z"/>
<path d="M381 1050 c-102 -36 -129 -53 -137 -84 -12 -51 33 -85 95 -73 26 6
29 3 45 -51 54 -175 190 -328 371 -418 392 -195 863 4 1000 423 l17 52 48 -6
c42 -5 49 -3 64 18 21 31 20 62 -2 82 -10 10 -64 33 -120 52 -109 38 -129 37
-153 -6 -16 -31 -3 -67 31 -84 26 -13 29 -20 24 -43 -49 -204 -235 -383 -454
-438 -97 -24 -263 -15 -352 19 -174 67 -321 223 -371 393 l-15 51 28 16 c35
21 46 61 25 93 -8 13 -19 24 -24 24 -5 0 -15 2 -23 5 -7 2 -51 -9 -97 -25z"/>
</g>
</svg>
